<?xml version="1.0" encoding="utf-8" ?>
<svg baseProfile="full" height="300" version="1.1" width="240" xmlns="http://www.w3.org/2000/svg" xmlns:ev="http://www.w3.org/2001/xml-events" xmlns:xlink="http://www.w3.org/1999/xlink"><defs /><rect fill="black" height="20" stroke="lightgray" width="120" x="0" y="0" /><text fill="white" style="text-anchor:middle; dominant-baseline:central" x="60.0" y="10.0">GND</text><rect fill="#005000" height="20" stroke="red" width="40" x="200" y="0" /><text fill="#000000" style="text-anchor:middle; dominant-baseline:central" x="220.0" y="10.0">G35</text><rect fill="#ffc0c0" height="20" stroke="lightgray" width="80" x="120" y="0" /><text fill="#ffffff" style="text-anchor:middle; dominant-baseline:central" x="160.0" y="10.0">ADC</text><rect fill="black" height="20" stroke="lightgray" width="120" x="0" y="20" /><text fill="white" style="text-anchor:middle; dominant-baseline:central" x="60.0" y="30.0">GND</text><rect fill="#005000" height="20" stroke="red" width="40" x="200" y="20" /><text fill="#000000" style="text-anchor:middle; dominant-baseline:central" x="220.0" y="30.0">G36</text><rect fill="#ffc0c0" height="20" stroke="lightgray" width="80" x="120" y="20" /><text fill="#ffffff" style="text-anchor:middle; dominant-baseline:central" x="160.0" y="30.0">ADC</text><rect fill="black" height="20" stroke="lightgray" width="120" x="0" y="40" /><text fill="white" style="text-anchor:middle; dominant-baseline:central" x="60.0" y="50.0">GND</text><rect fill="#c0c0c0" height="20" stroke="lightgray" width="40" x="200" y="40" /><text fill="#000000" style="text-anchor:middle; dominant-baseline:central" x="220.0" y="50.0">EN</text><rect fill="#c0c0c0" height="20" stroke="lightgray" width="80" x="120" y="40" /><text fill="#000000" style="text-anchor:middle; dominant-baseline:central" x="160.0" y="50.0">RST</text><rect fill="#ffffff" height="20" stroke="lightgray" width="40" x="0" y="60" /><text fill="#000000" style="text-anchor:middle; dominant-baseline:central" x="20.0" y="70.0">G23</text><rect fill="#2080ff" height="20" stroke="lightgray" width="80" x="40" y="60" /><text fill="#000000" style="text-anchor:middle; dominant-baseline:central" x="80.0" y="70.0">MOSI</text><rect fill="#ffffff" height="20" stroke="lightgray" width="40" x="200" y="60" /><text fill="#000000" style="text-anchor:middle; dominant-baseline:central" x="220.0" y="70.0">G25</text><rect fill="#ff8080" height="20" stroke="lightgray" width="80" x="120" y="60" /><text fill="#ffffff" style="text-anchor:middle; dominant-baseline:central" x="160.0" y="70.0">DAC/SPK</text><rect fill="#ffffff" height="20" stroke="lightgray" width="40" x="0" y="80" /><text fill="#000000" style="text-anchor:middle; dominant-baseline:central" x="20.0" y="90.0">G19</text><rect fill="#2080ff" height="20" stroke="lightgray" width="80" x="40" y="80" /><text fill="#000000" style="text-anchor:middle; dominant-baseline:central" x="80.0" y="90.0">MISO</text><rect fill="#ffffff" height="20" stroke="lightgray" width="40" x="200" y="80" /><text fill="#000000" style="text-anchor:middle; dominant-baseline:central" x="220.0" y="90.0">G26</text><rect fill="#ff8080" height="20" stroke="lightgray" width="80" x="120" y="80" /><text fill="#ffffff" style="text-anchor:middle; dominant-baseline:central" x="160.0" y="90.0">DAC</text><rect fill="#ffffff" height="20" stroke="lightgray" width="40" x="0" y="100" /><text fill="#000000" style="text-anchor:middle; dominant-baseline:central" x="20.0" y="110.0">G18</text><rect fill="#2080ff" height="20" stroke="lightgray" width="80" x="40" y="100" /><text fill="#000000" style="text-anchor:middle; dominant-baseline:central" x="80.0" y="110.0">SCK</text><rect fill="#c00000" height="20" stroke="lightgray" width="120" x="120" y="100" /><text fill="#ffffff" style="text-anchor:middle; dominant-baseline:central" x="180.0" y="110.0">3V3</text><rect fill="#ffffff" height="20" stroke="lightgray" width="40" x="0" y="120" /><text fill="#000000" style="text-anchor:middle; dominant-baseline:central" x="20.0" y="130.0">G3</text><rect fill="#20a020" height="20" stroke="lightgray" width="80" x="40" y="120" /><text fill="#ffffff" style="text-anchor:middle; dominant-baseline:central" x="80.0" y="130.0">RXD0</text><rect fill="#ffffff" height="20" stroke="lightgray" width="40" x="200" y="120" /><text fill="#000000" style="text-anchor:middle; dominant-baseline:central" x="220.0" y="130.0">G1</text><rect fill="#20a020" height="20" stroke="lightgray" width="80" x="120" y="120" /><text fill="#ffffff" style="text-anchor:middle; dominant-baseline:central" x="160.0" y="130.0">TXD0</text><rect fill="#ffffff" height="20" stroke="lightgray" width="40" x="0" y="140" /><text fill="#000000" style="text-anchor:middle; dominant-baseline:central" x="20.0" y="150.0">G16</text><rect fill="#20a020" height="20" stroke="lightgray" width="80" x="40" y="140" /><text fill="#ffffff" style="text-anchor:middle; dominant-baseline:central" x="80.0" y="150.0">RXD2</text><rect fill="#ffffff" height="20" stroke="lightgray" width="40" x="200" y="140" /><text fill="#000000" style="text-anchor:middle; dominant-baseline:central" x="220.0" y="150.0">G17</text><rect fill="#20a020" height="20" stroke="lightgray" width="80" x="120" y="140" /><text fill="#ffffff" style="text-anchor:middle; dominant-baseline:central" x="160.0" y="150.0">TXD2</text><rect fill="#ffffff" height="20" stroke="lightgray" width="40" x="0" y="160" /><text fill="#000000" style="text-anchor:middle; dominant-baseline:central" x="20.0" y="170.0">G21</text><rect fill="#ff1010" height="20" stroke="lightgray" width="80" x="40" y="160" /><text fill="#ffffff" style="text-anchor:middle; dominant-baseline:central" x="80.0" y="170.0">SDA</text><rect fill="#ffffff" height="20" stroke="lightgray" width="40" x="200" y="160" /><text fill="#000000" style="text-anchor:middle; dominant-baseline:central" x="220.0" y="170.0">G22</text><rect fill="#ff1010" height="20" stroke="lightgray" width="80" x="120" y="160" /><text fill="#ffffff" style="text-anchor:middle; dominant-baseline:central" x="160.0" y="170.0">SCL</text><rect fill="#ffffff" height="20" stroke="lightgray" width="40" x="0" y="180" /><text fill="#000000" style="text-anchor:middle; dominant-baseline:central" x="20.0" y="190.0">G2</text><rect fill="#c08080" height="20" stroke="lightgray" width="80" x="40" y="180" /><text fill="#000000" style="text-anchor:middle; dominant-baseline:central" x="80.0" y="190.0">GPIO</text><rect fill="#ffffff" height="20" stroke="lightgray" width="40" x="200" y="180" /><text fill="#000000" style="text-anchor:middle; dominant-baseline:central" x="220.0" y="190.0">G5</text><rect fill="#c08080" height="20" stroke="lightgray" width="80" x="120" y="180" /><text fill="#000000" style="text-anchor:middle; dominant-baseline:central" x="160.0" y="190.0">GPIO</text><rect fill="#ffffff" height="20" stroke="lightgray" width="40" x="0" y="200" /><text fill="#000000" style="text-anchor:middle; dominant-baseline:central" x="20.0" y="210.0">G12</text><rect fill="#ff8080" height="20" stroke="lightgray" width="80" x="40" y="200" /><text fill="#000000" style="text-anchor:middle; dominant-baseline:central" x="80.0" y="210.0">I2S SK</text><rect fill="#ffffff" height="20" stroke="lightgray" width="40" x="200" y="200" /><text fill="#000000" style="text-anchor:middle; dominant-baseline:central" x="220.0" y="210.0">G13</text><rect fill="#ff8080" height="20" stroke="lightgray" width="80" x="120" y="200" /><text fill="#000000" style="text-anchor:middle; dominant-baseline:central" x="160.0" y="210.0">I2S WS</text><rect fill="#ffffff" height="20" stroke="lightgray" width="40" x="0" y="220" /><text fill="#000000" style="text-anchor:middle; dominant-baseline:central" x="20.0" y="230.0">G15</text><rect fill="#ff8080" height="20" stroke="lightgray" width="80" x="40" y="220" /><text fill="#000000" style="text-anchor:middle; dominant-baseline:central" x="80.0" y="230.0">I2SOUT</text><rect fill="#ffffff" height="20" stroke="lightgray" width="40" x="200" y="220" /><text fill="#000000" style="text-anchor:middle; dominant-baseline:central" x="220.0" y="230.0">G0</text><rect fill="#ff8080" height="20" stroke="lightgray" width="80" x="120" y="220" /><text fill="#000000" style="text-anchor:middle; dominant-baseline:central" x="160.0" y="230.0">I2S MK</text><rect fill="#c0a000" height="20" stroke="lightgray" width="120" x="0" y="240" /><text fill="#000000" style="text-anchor:middle; dominant-baseline:central" x="60.0" y="250.0">HPWR</text><rect fill="#ffffff" height="20" stroke="lightgray" width="40" x="200" y="240" /><text fill="#000000" style="text-anchor:middle; dominant-baseline:central" x="220.0" y="250.0">G34</text><rect fill="#ff8080" height="20" stroke="lightgray" width="80" x="120" y="240" /><text fill="#000000" style="text-anchor:middle; dominant-baseline:central" x="160.0" y="250.0">I2S IN</text><rect fill="#c0a000" height="20" stroke="lightgray" width="120" x="0" y="260" /><text fill="#000000" style="text-anchor:middle; dominant-baseline:central" x="60.0" y="270.0">HPWR</text><rect fill="#c00000" height="20" stroke="lightgray" width="120" x="120" y="260" /><text fill="#ffffff" style="text-anchor:middle; dominant-baseline:central" x="180.0" y="270.0">5V</text><rect fill="#c0a000" height="20" stroke="lightgray" width="120" x="0" y="280" /><text fill="#000000" style="text-anchor:middle; dominant-baseline:central" x="60.0" y="290.0">HPWR</text><rect fill="#c0c000" height="20" stroke="lightgray" width="120" x="120" y="280" /><text fill="#000000" style="text-anchor:middle; dominant-baseline:central" x="180.0" y="290.0">BAT</text></svg>