<?xml version="1.0" encoding="utf-8" ?>
<svg baseProfile="full" height="100%" version="1.1" width="100%" xmlns="http://www.w3.org/2000/svg" xmlns:ev="http://www.w3.org/2001/xml-events" xmlns:xlink="http://www.w3.org/1999/xlink"><defs /><rect fill="#c00000" height="20" width="40" x="0" y="0" /><text fill="#ffffff" style="text-anchor:middle; dominant-baseline:central" x="20.0" y="10.0">3V3</text><rect fill="#ffffff" height="20" width="40" x="0" y="20" /><text fill="#000000" style="text-anchor:middle; dominant-baseline:central" x="20.0" y="30.0">G22</text><rect fill="#ffffff" height="20" width="40" x="200" y="20" /><text fill="#000000" style="text-anchor:middle; dominant-baseline:central" x="220.0" y="30.0">G21</text><rect fill="#ff1010" height="20" width="80" x="120" y="20" /><text fill="#ffffff" style="text-anchor:middle; dominant-baseline:central" x="160.0" y="30.0">SCL</text><rect fill="#ffffff" height="20" width="40" x="0" y="40" /><text fill="#000000" style="text-anchor:middle; dominant-baseline:central" x="20.0" y="50.0">G19</text><rect fill="#ffffff" height="20" width="40" x="200" y="40" /><text fill="#000000" style="text-anchor:middle; dominant-baseline:central" x="220.0" y="50.0">G25</text><rect fill="#ff1010" height="20" width="80" x="120" y="40" /><text fill="#ffffff" style="text-anchor:middle; dominant-baseline:central" x="160.0" y="50.0">SDA</text><rect fill="#ffffff" height="20" width="40" x="0" y="60" /><text fill="#000000" style="text-anchor:middle; dominant-baseline:central" x="20.0" y="70.0">G23</text><rect fill="#c00000" height="20" width="40" x="200" y="60" /><text fill="#ffffff" style="text-anchor:middle; dominant-baseline:central" x="220.0" y="70.0">5V</text><rect fill="#ffffff" height="20" width="40" x="0" y="80" /><text fill="#000000" style="text-anchor:middle; dominant-baseline:central" x="20.0" y="90.0">G33</text><rect fill="black" height="20" width="40" x="200" y="80" /><text fill="white" style="text-anchor:middle; dominant-baseline:central" x="220.0" y="90.0">GND</text></svg>